<svg xmlns="http://www.w3.org/2000/svg" width="1920" height="1080"><path d="M-242,-219L50,-206L541,-218Z" fill="#969696" stroke="#969696" stroke-width="1.51"/><path d="M356,1272L67,1308L781,1265Z" fill="#9d9d9d" stroke="#9d9d9d" stroke-width="1.51"/><path d="M-242,-219L541,-218L801,-227Z" fill="#a0a0a0" stroke="#a0a0a0" stroke-width="1.51"/><path d="M991,1258L781,1265L1382,1276Z" fill="#adadad" stroke="#adadad" stroke-width="1.51"/><path d="M781,1265L67,1308L1382,1276Z" fill="#aaaaaa" stroke="#aaaaaa" stroke-width="1.51"/><path d="M801,-227L970,-215L1395,-218Z" fill="#b0b0b0" stroke="#b0b0b0" stroke-width="1.51"/><path d="M1571,-198L1660,-177L1973,-184Z" fill="#969696" stroke="#969696" stroke-width="1.51"/><path d="M1382,1276L67,1308L1992,1295Z" fill="#a5a5a5" stroke="#a5a5a5" stroke-width="1.51"/><path d="M1661,1267L1528,1270L1992,1295Z" fill="#909090" stroke="#909090" stroke-width="1.51"/><path d="M1528,1270L1382,1276L1992,1295Z" fill="#949494" stroke="#949494" stroke-width="1.51"/><path d="M1867,1262L1661,1267L1992,1295Z" fill="#8b8b8b" stroke="#8b8b8b" stroke-width="1.51"/><path d="M1973,-184L1997,-58L2091,-47Z" fill="#909090" stroke="#909090" stroke-width="1.51"/><path d="M2092,376L1976,424L2101,544Z" fill="#afafaf" stroke="#afafaf" stroke-width="1.51"/><path d="M1978,696L2098,704L2101,544Z" fill="#aaaaaa" stroke="#aaaaaa" stroke-width="1.51"/><path d="M2092,376L2101,544L2111,262Z" fill="#aaaaaa" stroke="#aaaaaa" stroke-width="1.51"/><path d="M2095,1110L2093,1266L2113,1002Z" fill="#8a8a8a" stroke="#8a8a8a" stroke-width="1.51"/><path d="M801,-227L1395,-218L2123,-218Z" fill="#9f9f9f" stroke="#9f9f9f" stroke-width="1.51"/><path d="M1571,-198L1973,-184L2123,-218Z" fill="#8e8e8e" stroke="#8e8e8e" stroke-width="1.51"/><path d="M1395,-218L1571,-198L2123,-218Z" fill="#959595" stroke="#959595" stroke-width="1.51"/><path d="M1973,-184L2091,-47L2123,-218Z" fill="#898989" stroke="#898989" stroke-width="1.51"/><path d="M1996,230L2111,262L2126,73Z" fill="#9f9f9f" stroke="#9f9f9f" stroke-width="1.51"/><path d="M1969,123L1996,230L2126,73Z" fill="#9e9e9e" stroke="#9e9e9e" stroke-width="1.51"/><path d="M2123,-218L2091,-47L2126,73Z" fill="#8e8e8e" stroke="#8e8e8e" stroke-width="1.51"/><path d="M1967,944L2113,1002L2137,840Z" fill="#989898" stroke="#989898" stroke-width="1.51"/><path d="M1975,840L1967,944L2137,840Z" fill="#9e9e9e" stroke="#9e9e9e" stroke-width="1.51"/><path d="M2113,1002L2093,1266L2137,840Z" fill="#8f8f8f" stroke="#8f8f8f" stroke-width="1.51"/><path d="M2098,704L1975,840L2137,840Z" fill="#9f9f9f" stroke="#9f9f9f" stroke-width="1.51"/><path d="M2101,544L2098,704L2137,840Z" fill="#a3a3a3" stroke="#a3a3a3" stroke-width="1.51"/><path d="M2126,73L2111,262L2137,840Z" fill="#a9a9a9" stroke="#a9a9a9" stroke-width="1.51"/><path d="M2111,262L2101,544L2137,840Z" fill="#b0b0b0" stroke="#b0b0b0" stroke-width="1.51"/><path d="M1988,1090L2093,1266L2095,1110Z" fill="#898989" stroke="#898989" stroke-width="1.51"/><path d="M1988,1090L2095,1110L2113,1002Z" fill="#8f8f8f" stroke="#8f8f8f" stroke-width="1.51"/><path d="M2091,-47L1997,-58L2126,73Z" fill="#939393" stroke="#939393" stroke-width="1.51"/><path d="M1997,-58L1969,123L2126,73Z" fill="#989898" stroke="#989898" stroke-width="1.51"/><path d="M1988,1090L1992,1295L2093,1266Z" fill="#878787" stroke="#878787" stroke-width="1.51"/><path d="M1978,696L1975,840L2098,704Z" fill="#a4a4a4" stroke="#a4a4a4" stroke-width="1.51"/><path d="M1996,230L2092,376L2111,262Z" fill="#a7a7a7" stroke="#a7a7a7" stroke-width="1.51"/><path d="M1660,-177L1871,-144L1973,-184Z" fill="#939393" stroke="#939393" stroke-width="1.51"/><path d="M1934,524L1978,696L2101,544Z" fill="#b2b2b2" stroke="#b2b2b2" stroke-width="1.51"/><path d="M1967,944L1988,1090L2113,1002Z" fill="#959595" stroke="#959595" stroke-width="1.51"/><path d="M1976,424L1934,524L2101,544Z" fill="#b4b4b4" stroke="#b4b4b4" stroke-width="1.51"/><path d="M1996,230L1976,424L2092,376Z" fill="#acacac" stroke="#acacac" stroke-width="1.51"/><path d="M1838,-5L1828,80L1969,123Z" fill="#a2a2a2" stroke="#a2a2a2" stroke-width="1.51"/><path d="M1934,524L1842,664L1978,696Z" fill="#b3b3b3" stroke="#b3b3b3" stroke-width="1.51"/><path d="M1837,801L1975,840L1978,696Z" fill="#a7a7a7" stroke="#a7a7a7" stroke-width="1.51"/><path d="M1967,944L1792,940L1988,1090Z" fill="#9c9c9c" stroke="#9c9c9c" stroke-width="1.51"/><path d="M1792,940L1826,1157L1988,1090Z" fill="#999999" stroke="#999999" stroke-width="1.51"/><path d="M1826,1157L1867,1262L1988,1090Z" fill="#919191" stroke="#919191" stroke-width="1.51"/><path d="M1988,1090L1867,1262L1992,1295Z" fill="#8a8a8a" stroke="#8a8a8a" stroke-width="1.51"/><path d="M1969,123L1789,282L1996,230Z" fill="#a9a9a9" stroke="#a9a9a9" stroke-width="1.51"/><path d="M1789,282L1857,361L1996,230Z" fill="#b0b0b0" stroke="#b0b0b0" stroke-width="1.51"/><path d="M1857,361L1976,424L1996,230Z" fill="#b0b0b0" stroke="#b0b0b0" stroke-width="1.51"/><path d="M1838,-5L1969,123L1997,-58Z" fill="#9c9c9c" stroke="#9c9c9c" stroke-width="1.51"/><path d="M1973,-184L1871,-144L1997,-58Z" fill="#919191" stroke="#919191" stroke-width="1.51"/><path d="M1871,-144L1838,-5L1997,-58Z" fill="#989898" stroke="#989898" stroke-width="1.51"/><path d="M664,1254L356,1272L781,1265Z" fill="#a7a7a7" stroke="#a7a7a7" stroke-width="1.51"/><path d="M1828,80L1789,282L1969,123Z" fill="#a8a8a8" stroke="#a8a8a8" stroke-width="1.51"/><path d="M1837,801L1792,940L1967,944Z" fill="#a5a5a5" stroke="#a5a5a5" stroke-width="1.51"/><path d="M1837,801L1967,944L1975,840Z" fill="#a3a3a3" stroke="#a3a3a3" stroke-width="1.51"/><path d="M1857,361L1934,524L1976,424Z" fill="#b6b6b6" stroke="#b6b6b6" stroke-width="1.51"/><path d="M1842,664L1837,801L1978,696Z" fill="#adadad" stroke="#adadad" stroke-width="1.51"/><path d="M1857,361L1799,577L1934,524Z" fill="#bbbbbb" stroke="#bbbbbb" stroke-width="1.51"/><path d="M1799,577L1842,664L1934,524Z" fill="#b9b9b9" stroke="#b9b9b9" stroke-width="1.51"/><path d="M1664,380L1703,564L1799,577Z" fill="#c2c2c2" stroke="#c2c2c2" stroke-width="1.51"/><path d="M1792,940L1702,958L1826,1157Z" fill="#a1a1a1" stroke="#a1a1a1" stroke-width="1.51"/><path d="M1702,958L1655,1087L1826,1157Z" fill="#9f9f9f" stroke="#9f9f9f" stroke-width="1.51"/><path d="M1718,75L1789,282L1828,80Z" fill="#ababab" stroke="#ababab" stroke-width="1.51"/><path d="M1664,380L1799,577L1857,361Z" fill="#bdbdbd" stroke="#bdbdbd" stroke-width="1.51"/><path d="M1708,-12L1838,-5L1871,-144Z" fill="#9e9e9e" stroke="#9e9e9e" stroke-width="1.51"/><path d="M1660,-177L1708,-12L1871,-144Z" fill="#9b9b9b" stroke="#9b9b9b" stroke-width="1.51"/><path d="M1687,690L1837,801L1842,664Z" fill="#b2b2b2" stroke="#b2b2b2" stroke-width="1.51"/><path d="M1826,1157L1661,1267L1867,1262Z" fill="#919191" stroke="#919191" stroke-width="1.51"/><path d="M1709,855L1792,940L1837,801Z" fill="#aaaaaa" stroke="#aaaaaa" stroke-width="1.51"/><path d="M1789,282L1664,380L1857,361Z" fill="#b9b9b9" stroke="#b9b9b9" stroke-width="1.51"/><path d="M1718,75L1691,290L1789,282Z" fill="#b1b1b1" stroke="#b1b1b1" stroke-width="1.51"/><path d="M1687,690L1709,855L1837,801Z" fill="#afafaf" stroke="#afafaf" stroke-width="1.51"/><path d="M1718,75L1828,80L1838,-5Z" fill="#a4a4a4" stroke="#a4a4a4" stroke-width="1.51"/><path d="M1708,-12L1718,75L1838,-5Z" fill="#a4a4a4" stroke="#a4a4a4" stroke-width="1.51"/><path d="M1799,577L1687,690L1842,664Z" fill="#b8b8b8" stroke="#b8b8b8" stroke-width="1.51"/><path d="M1691,290L1664,380L1789,282Z" fill="#bababa" stroke="#bababa" stroke-width="1.51"/><path d="M1655,1087L1661,1267L1826,1157Z" fill="#999999" stroke="#999999" stroke-width="1.51"/><path d="M1709,855L1702,958L1792,940Z" fill="#a9a9a9" stroke="#a9a9a9" stroke-width="1.51"/><path d="M1703,564L1687,690L1799,577Z" fill="#bdbdbd" stroke="#bdbdbd" stroke-width="1.51"/><path d="M1219,1234L991,1258L1382,1276Z" fill="#a6a6a6" stroke="#a6a6a6" stroke-width="1.51"/><path d="M1655,1087L1561,1108L1661,1267Z" fill="#9e9e9e" stroke="#9e9e9e" stroke-width="1.51"/><path d="M1573,109L1529,215L1691,290Z" fill="#b7b7b7" stroke="#b7b7b7" stroke-width="1.51"/><path d="M1577,552L1687,690L1703,564Z" fill="#c1c1c1" stroke="#c1c1c1" stroke-width="1.51"/><path d="M1664,380L1577,552L1703,564Z" fill="#c5c5c5" stroke="#c5c5c5" stroke-width="1.51"/><path d="M1660,-177L1583,-67L1708,-12Z" fill="#a2a2a2" stroke="#a2a2a2" stroke-width="1.51"/><path d="M1563,859L1702,958L1709,855Z" fill="#aeaeae" stroke="#aeaeae" stroke-width="1.51"/><path d="M1687,690L1563,859L1709,855Z" fill="#b2b2b2" stroke="#b2b2b2" stroke-width="1.51"/><path d="M1708,-12L1573,109L1718,75Z" fill="#aaaaaa" stroke="#aaaaaa" stroke-width="1.51"/><path d="M1573,109L1691,290L1718,75Z" fill="#b1b1b1" stroke="#b1b1b1" stroke-width="1.51"/><path d="M1510,722L1563,859L1687,690Z" fill="#b8b8b8" stroke="#b8b8b8" stroke-width="1.51"/><path d="M1552,997L1655,1087L1702,958Z" fill="#a7a7a7" stroke="#a7a7a7" stroke-width="1.51"/><path d="M1583,-67L1573,109L1708,-12Z" fill="#a9a9a9" stroke="#a9a9a9" stroke-width="1.51"/><path d="M1563,859L1552,997L1702,958Z" fill="#adadad" stroke="#adadad" stroke-width="1.51"/><path d="M1550,369L1577,552L1664,380Z" fill="#c4c4c4" stroke="#c4c4c4" stroke-width="1.51"/><path d="M1577,552L1510,722L1687,690Z" fill="#c0c0c0" stroke="#c0c0c0" stroke-width="1.51"/><path d="M1550,369L1664,380L1691,290Z" fill="#bfbfbf" stroke="#bfbfbf" stroke-width="1.51"/><path d="M1529,215L1550,369L1691,290Z" fill="#bdbdbd" stroke="#bdbdbd" stroke-width="1.51"/><path d="M1561,1108L1528,1270L1661,1267Z" fill="#9b9b9b" stroke="#9b9b9b" stroke-width="1.51"/><path d="M970,-215L1227,-171L1395,-218Z" fill="#aaaaaa" stroke="#aaaaaa" stroke-width="1.51"/><path d="M1552,997L1561,1108L1655,1087Z" fill="#a6a6a6" stroke="#a6a6a6" stroke-width="1.51"/><path d="M1571,-198L1583,-67L1660,-177Z" fill="#9f9f9f" stroke="#9f9f9f" stroke-width="1.51"/><path d="M1510,722L1427,793L1563,859Z" fill="#b9b9b9" stroke="#b9b9b9" stroke-width="1.51"/><path d="M1424,968L1552,997L1563,859Z" fill="#b1b1b1" stroke="#b1b1b1" stroke-width="1.51"/><path d="M1395,-218L1394,-33L1571,-198Z" fill="#a4a4a4" stroke="#a4a4a4" stroke-width="1.51"/><path d="M1394,-33L1375,112L1573,109Z" fill="#b3b3b3" stroke="#b3b3b3" stroke-width="1.51"/><path d="M1405,680L1510,722L1577,552Z" fill="#c3c3c3" stroke="#c3c3c3" stroke-width="1.51"/><path d="M1408,544L1405,680L1577,552Z" fill="#cacaca" stroke="#cacaca" stroke-width="1.51"/><path d="M1550,369L1422,397L1577,552Z" fill="#c8c8c8" stroke="#c8c8c8" stroke-width="1.51"/><path d="M1422,397L1408,544L1577,552Z" fill="#cccccc" stroke="#cccccc" stroke-width="1.51"/><path d="M1394,-33L1573,109L1583,-67Z" fill="#adadad" stroke="#adadad" stroke-width="1.51"/><path d="M1571,-198L1394,-33L1583,-67Z" fill="#a6a6a6" stroke="#a6a6a6" stroke-width="1.51"/><path d="M1529,215L1432,220L1550,369Z" fill="#bfbfbf" stroke="#bfbfbf" stroke-width="1.51"/><path d="M1365,1104L1528,1270L1561,1108Z" fill="#a2a2a2" stroke="#a2a2a2" stroke-width="1.51"/><path d="M1552,997L1424,968L1561,1108Z" fill="#ababab" stroke="#ababab" stroke-width="1.51"/><path d="M1432,220L1529,215L1573,109Z" fill="#b8b8b8" stroke="#b8b8b8" stroke-width="1.51"/><path d="M1375,112L1432,220L1573,109Z" fill="#b8b8b8" stroke="#b8b8b8" stroke-width="1.51"/><path d="M1365,1104L1382,1276L1528,1270Z" fill="#a0a0a0" stroke="#a0a0a0" stroke-width="1.51"/><path d="M1432,220L1422,397L1550,369Z" fill="#c4c4c4" stroke="#c4c4c4" stroke-width="1.51"/><path d="M1424,968L1365,1104L1561,1108Z" fill="#ababab" stroke="#ababab" stroke-width="1.51"/><path d="M1427,793L1424,968L1563,859Z" fill="#b6b6b6" stroke="#b6b6b6" stroke-width="1.51"/><path d="M561,1249L356,1272L664,1254Z" fill="#a4a4a4" stroke="#a4a4a4" stroke-width="1.51"/><path d="M1405,680L1427,793L1510,722Z" fill="#bebebe" stroke="#bebebe" stroke-width="1.51"/><path d="M1227,-171L1229,-68L1394,-33Z" fill="#afafaf" stroke="#afafaf" stroke-width="1.51"/><path d="M1227,-171L1394,-33L1395,-218Z" fill="#a9a9a9" stroke="#a9a9a9" stroke-width="1.51"/><path d="M1254,565L1405,680L1408,544Z" fill="#cdcdcd" stroke="#cdcdcd" stroke-width="1.51"/><path d="M1263,223L1287,426L1422,397Z" fill="#cacaca" stroke="#cacaca" stroke-width="1.51"/><path d="M1287,426L1408,544L1422,397Z" fill="#cdcdcd" stroke="#cdcdcd" stroke-width="1.51"/><path d="M1252,957L1365,1104L1424,968Z" fill="#b2b2b2" stroke="#b2b2b2" stroke-width="1.51"/><path d="M1265,841L1252,957L1424,968Z" fill="#b9b9b9" stroke="#b9b9b9" stroke-width="1.51"/><path d="M1405,680L1253,693L1427,793Z" fill="#c2c2c2" stroke="#c2c2c2" stroke-width="1.51"/><path d="M1253,693L1265,841L1427,793Z" fill="#c0c0c0" stroke="#c0c0c0" stroke-width="1.51"/><path d="M1265,841L1424,968L1427,793Z" fill="#b9b9b9" stroke="#b9b9b9" stroke-width="1.51"/><path d="M1263,223L1422,397L1432,220Z" fill="#c4c4c4" stroke="#c4c4c4" stroke-width="1.51"/><path d="M1375,112L1263,223L1432,220Z" fill="#bebebe" stroke="#bebebe" stroke-width="1.51"/><path d="M1073,1226L991,1258L1219,1234Z" fill="#adadad" stroke="#adadad" stroke-width="1.51"/><path d="M1365,1104L1219,1234L1382,1276Z" fill="#a5a5a5" stroke="#a5a5a5" stroke-width="1.51"/><path d="M1241,69L1375,112L1394,-33Z" fill="#b6b6b6" stroke="#b6b6b6" stroke-width="1.51"/><path d="M1254,565L1253,693L1405,680Z" fill="#cbcbcb" stroke="#cbcbcb" stroke-width="1.51"/><path d="M1287,426L1254,565L1408,544Z" fill="#d2d2d2" stroke="#d2d2d2" stroke-width="1.51"/><path d="M1229,-68L1241,69L1394,-33Z" fill="#b4b4b4" stroke="#b4b4b4" stroke-width="1.51"/><path d="M1252,957L1226,1090L1365,1104Z" fill="#b1b1b1" stroke="#b1b1b1" stroke-width="1.51"/><path d="M1226,1090L1219,1234L1365,1104Z" fill="#ababab" stroke="#ababab" stroke-width="1.51"/><path d="M1241,69L1263,223L1375,112Z" fill="#bcbcbc" stroke="#bcbcbc" stroke-width="1.51"/><path d="M50,-206L364,-186L541,-218Z" fill="#9f9f9f" stroke="#9f9f9f" stroke-width="1.51"/><path d="M970,-215L1126,-148L1227,-171Z" fill="#b1b1b1" stroke="#b1b1b1" stroke-width="1.51"/><path d="M1087,229L1094,400L1263,223Z" fill="#cecece" stroke="#cecece" stroke-width="1.51"/><path d="M1253,693L1133,789L1265,841Z" fill="#c5c5c5" stroke="#c5c5c5" stroke-width="1.51"/><path d="M1263,223L1094,400L1287,426Z" fill="#cfcfcf" stroke="#cfcfcf" stroke-width="1.51"/><path d="M1094,400L1254,565L1287,426Z" fill="#d4d4d4" stroke="#d4d4d4" stroke-width="1.51"/><path d="M1133,1077L1226,1090L1252,957Z" fill="#b6b6b6" stroke="#b6b6b6" stroke-width="1.51"/><path d="M1133,789L1074,952L1252,957Z" fill="#c2c2c2" stroke="#c2c2c2" stroke-width="1.51"/><path d="M1129,694L1133,789L1253,693Z" fill="#cacaca" stroke="#cacaca" stroke-width="1.51"/><path d="M1129,694L1253,693L1254,565Z" fill="#cecece" stroke="#cecece" stroke-width="1.51"/><path d="M1094,400L1071,550L1254,565Z" fill="#dadada" stroke="#dadada" stroke-width="1.51"/><path d="M1241,69L1065,136L1263,223Z" fill="#c2c2c2" stroke="#c2c2c2" stroke-width="1.51"/><path d="M1065,136L1087,229L1263,223Z" fill="#c9c9c9" stroke="#c9c9c9" stroke-width="1.51"/><path d="M1133,789L1252,957L1265,841Z" fill="#c0c0c0" stroke="#c0c0c0" stroke-width="1.51"/><path d="M1229,-68L1104,-62L1241,69Z" fill="#b8b8b8" stroke="#b8b8b8" stroke-width="1.51"/><path d="M1133,1077L1219,1234L1226,1090Z" fill="#b0b0b0" stroke="#b0b0b0" stroke-width="1.51"/><path d="M1074,952L1133,1077L1252,957Z" fill="#bcbcbc" stroke="#bcbcbc" stroke-width="1.51"/><path d="M1071,550L1129,694L1254,565Z" fill="#d6d6d6" stroke="#d6d6d6" stroke-width="1.51"/><path d="M1227,-171L1126,-148L1229,-68Z" fill="#b0b0b0" stroke="#b0b0b0" stroke-width="1.51"/><path d="M1133,1077L1073,1226L1219,1234Z" fill="#afafaf" stroke="#afafaf" stroke-width="1.51"/><path d="M1104,-62L1065,136L1241,69Z" fill="#bfbfbf" stroke="#bfbfbf" stroke-width="1.51"/><path d="M1126,-148L1104,-62L1229,-68Z" fill="#b5b5b5" stroke="#b5b5b5" stroke-width="1.51"/><path d="M1087,229L931,273L1094,400Z" fill="#d5d5d5" stroke="#d5d5d5" stroke-width="1.51"/><path d="M983,87L1065,136L1104,-62Z" fill="#c4c4c4" stroke="#c4c4c4" stroke-width="1.51"/><path d="M953,-26L983,87L1104,-62Z" fill="#c3c3c3" stroke="#c3c3c3" stroke-width="1.51"/><path d="M1071,550L935,643L1129,694Z" fill="#dadada" stroke="#dadada" stroke-width="1.51"/><path d="M919,837L1074,952L1133,789Z" fill="#cacaca" stroke="#cacaca" stroke-width="1.51"/><path d="M1129,694L935,643L1133,789Z" fill="#d1d1d1" stroke="#d1d1d1" stroke-width="1.51"/><path d="M935,643L919,837L1133,789Z" fill="#d2d2d2" stroke="#d2d2d2" stroke-width="1.51"/><path d="M989,1142L1073,1226L1133,1077Z" fill="#b5b5b5" stroke="#b5b5b5" stroke-width="1.51"/><path d="M1074,952L979,1010L1133,1077Z" fill="#c0c0c0" stroke="#c0c0c0" stroke-width="1.51"/><path d="M979,1010L989,1142L1133,1077Z" fill="#bcbcbc" stroke="#bcbcbc" stroke-width="1.51"/><path d="M970,-215L1104,-62L1126,-148Z" fill="#b5b5b5" stroke="#b5b5b5" stroke-width="1.51"/><path d="M917,548L1071,550L1094,400Z" fill="#e0e0e0" stroke="#e0e0e0" stroke-width="1.51"/><path d="M917,371L917,548L1094,400Z" fill="#e0e0e0" stroke="#e0e0e0" stroke-width="1.51"/><path d="M931,273L917,371L1094,400Z" fill="#dcdcdc" stroke="#dcdcdc" stroke-width="1.51"/><path d="M970,-215L953,-26L1104,-62Z" fill="#bcbcbc" stroke="#bcbcbc" stroke-width="1.51"/><path d="M1065,136L931,273L1087,229Z" fill="#d0d0d0" stroke="#d0d0d0" stroke-width="1.51"/><path d="M983,87L931,273L1065,136Z" fill="#cecece" stroke="#cecece" stroke-width="1.51"/><path d="M917,548L935,643L1071,550Z" fill="#e1e1e1" stroke="#e1e1e1" stroke-width="1.51"/><path d="M989,1142L991,1258L1073,1226Z" fill="#b4b4b4" stroke="#b4b4b4" stroke-width="1.51"/><path d="M919,837L979,1010L1074,952Z" fill="#c9c9c9" stroke="#c9c9c9" stroke-width="1.51"/><path d="M844,94L821,217L931,273Z" fill="#cfcfcf" stroke="#cfcfcf" stroke-width="1.51"/><path d="M825,694L919,837L935,643Z" fill="#d4d4d4" stroke="#d4d4d4" stroke-width="1.51"/><path d="M835,-26L953,-26L970,-215Z" fill="#bfbfbf" stroke="#bfbfbf" stroke-width="1.51"/><path d="M801,-227L835,-26L970,-215Z" fill="#b8b8b8" stroke="#b8b8b8" stroke-width="1.51"/><path d="M919,837L806,933L979,1010Z" fill="#c9c9c9" stroke="#c9c9c9" stroke-width="1.51"/><path d="M953,-26L844,94L983,87Z" fill="#c8c8c8" stroke="#c8c8c8" stroke-width="1.51"/><path d="M844,94L931,273L983,87Z" fill="#cecece" stroke="#cecece" stroke-width="1.51"/><path d="M979,1010L839,1136L989,1142Z" fill="#bfbfbf" stroke="#bfbfbf" stroke-width="1.51"/><path d="M989,1142L839,1136L991,1258Z" fill="#b9b9b9" stroke="#b9b9b9" stroke-width="1.51"/><path d="M839,1136L781,1265L991,1258Z" fill="#b3b3b3" stroke="#b3b3b3" stroke-width="1.51"/><path d="M806,933L839,1136L979,1010Z" fill="#c2c2c2" stroke="#c2c2c2" stroke-width="1.51"/><path d="M917,371L780,430L917,548Z" fill="#dfdfdf" stroke="#dfdfdf" stroke-width="1.51"/><path d="M835,-26L844,94L953,-26Z" fill="#c5c5c5" stroke="#c5c5c5" stroke-width="1.51"/><path d="M780,430L837,573L917,548Z" fill="#e1e1e1" stroke="#e1e1e1" stroke-width="1.51"/><path d="M825,694L790,812L919,837Z" fill="#cfcfcf" stroke="#cfcfcf" stroke-width="1.51"/><path d="M821,217L917,371L931,273Z" fill="#d7d7d7" stroke="#d7d7d7" stroke-width="1.51"/><path d="M917,548L837,573L935,643Z" fill="#e0e0e0" stroke="#e0e0e0" stroke-width="1.51"/><path d="M837,573L825,694L935,643Z" fill="#dadada" stroke="#dadada" stroke-width="1.51"/><path d="M821,217L780,430L917,371Z" fill="#d9d9d9" stroke="#d9d9d9" stroke-width="1.51"/><path d="M790,812L806,933L919,837Z" fill="#cbcbcb" stroke="#cbcbcb" stroke-width="1.51"/><path d="M627,-162L692,-38L801,-227Z" fill="#b4b4b4" stroke="#b4b4b4" stroke-width="1.51"/><path d="M711,409L780,430L821,217Z" fill="#d8d8d8" stroke="#d8d8d8" stroke-width="1.51"/><path d="M633,274L711,409L821,217Z" fill="#d3d3d3" stroke="#d3d3d3" stroke-width="1.51"/><path d="M801,-227L692,-38L835,-26Z" fill="#bababa" stroke="#bababa" stroke-width="1.51"/><path d="M780,430L686,507L837,573Z" fill="#dfdfdf" stroke="#dfdfdf" stroke-width="1.51"/><path d="M640,651L825,694L837,573Z" fill="#d8d8d8" stroke="#d8d8d8" stroke-width="1.51"/><path d="M675,1006L633,1150L839,1136Z" fill="#b8b8b8" stroke="#b8b8b8" stroke-width="1.51"/><path d="M806,933L675,1006L839,1136Z" fill="#bfbfbf" stroke="#bfbfbf" stroke-width="1.51"/><path d="M673,136L821,217L844,94Z" fill="#cacaca" stroke="#cacaca" stroke-width="1.51"/><path d="M835,-26L692,-38L844,94Z" fill="#c2c2c2" stroke="#c2c2c2" stroke-width="1.51"/><path d="M692,-38L673,136L844,94Z" fill="#c4c4c4" stroke="#c4c4c4" stroke-width="1.51"/><path d="M686,507L640,651L837,573Z" fill="#dcdcdc" stroke="#dcdcdc" stroke-width="1.51"/><path d="M633,1150L781,1265L839,1136Z" fill="#b3b3b3" stroke="#b3b3b3" stroke-width="1.51"/><path d="M633,1150L664,1254L781,1265Z" fill="#aeaeae" stroke="#aeaeae" stroke-width="1.51"/><path d="M541,-218L627,-162L801,-227Z" fill="#aeaeae" stroke="#aeaeae" stroke-width="1.51"/><path d="M640,651L790,812L825,694Z" fill="#d0d0d0" stroke="#d0d0d0" stroke-width="1.51"/><path d="M673,136L633,274L821,217Z" fill="#cccccc" stroke="#cccccc" stroke-width="1.51"/><path d="M640,651L627,822L790,812Z" fill="#cccccc" stroke="#cccccc" stroke-width="1.51"/><path d="M790,812L627,822L806,933Z" fill="#c8c8c8" stroke="#c8c8c8" stroke-width="1.51"/><path d="M627,822L675,1006L806,933Z" fill="#c4c4c4" stroke="#c4c4c4" stroke-width="1.51"/><path d="M711,409L686,507L780,430Z" fill="#dbdbdb" stroke="#dbdbdb" stroke-width="1.51"/><path d="M627,822L539,868L675,1006Z" fill="#c1c1c1" stroke="#c1c1c1" stroke-width="1.51"/><path d="M528,91L673,136L692,-38Z" fill="#c0c0c0" stroke="#c0c0c0" stroke-width="1.51"/><path d="M554,-41L528,91L692,-38Z" fill="#bababa" stroke="#bababa" stroke-width="1.51"/><path d="M487,365L686,507L711,409Z" fill="#d7d7d7" stroke="#d7d7d7" stroke-width="1.51"/><path d="M633,274L487,365L711,409Z" fill="#d2d2d2" stroke="#d2d2d2" stroke-width="1.51"/><path d="M539,868L520,1001L675,1006Z" fill="#bcbcbc" stroke="#bcbcbc" stroke-width="1.51"/><path d="M526,1102L633,1150L675,1006Z" fill="#b5b5b5" stroke="#b5b5b5" stroke-width="1.51"/><path d="M487,365L482,523L686,507Z" fill="#d5d5d5" stroke="#d5d5d5" stroke-width="1.51"/><path d="M482,523L640,651L686,507Z" fill="#d8d8d8" stroke="#d8d8d8" stroke-width="1.51"/><path d="M627,-162L554,-41L692,-38Z" fill="#b6b6b6" stroke="#b6b6b6" stroke-width="1.51"/><path d="M482,523L520,649L640,651Z" fill="#d2d2d2" stroke="#d2d2d2" stroke-width="1.51"/><path d="M520,649L627,822L640,651Z" fill="#cccccc" stroke="#cccccc" stroke-width="1.51"/><path d="M633,1150L561,1249L664,1254Z" fill="#ababab" stroke="#ababab" stroke-width="1.51"/><path d="M495,247L633,274L673,136Z" fill="#c9c9c9" stroke="#c9c9c9" stroke-width="1.51"/><path d="M528,91L495,247L673,136Z" fill="#c3c3c3" stroke="#c3c3c3" stroke-width="1.51"/><path d="M520,1001L526,1102L675,1006Z" fill="#b7b7b7" stroke="#b7b7b7" stroke-width="1.51"/><path d="M520,649L539,868L627,822Z" fill="#c6c6c6" stroke="#c6c6c6" stroke-width="1.51"/><path d="M495,247L487,365L633,274Z" fill="#cccccc" stroke="#cccccc" stroke-width="1.51"/><path d="M541,-218L554,-41L627,-162Z" fill="#b0b0b0" stroke="#b0b0b0" stroke-width="1.51"/><path d="M526,1102L561,1249L633,1150Z" fill="#adadad" stroke="#adadad" stroke-width="1.51"/><path d="M345,652L336,869L520,649Z" fill="#c2c2c2" stroke="#c2c2c2" stroke-width="1.51"/><path d="M402,1078L356,1272L526,1102Z" fill="#a9a9a9" stroke="#a9a9a9" stroke-width="1.51"/><path d="M414,125L495,247L528,91Z" fill="#bfbfbf" stroke="#bfbfbf" stroke-width="1.51"/><path d="M520,649L336,869L539,868Z" fill="#c0c0c0" stroke="#c0c0c0" stroke-width="1.51"/><path d="M364,-186L371,-80L541,-218Z" fill="#a7a7a7" stroke="#a7a7a7" stroke-width="1.51"/><path d="M541,-218L371,-80L554,-41Z" fill="#aeaeae" stroke="#aeaeae" stroke-width="1.51"/><path d="M371,-80L528,91L554,-41Z" fill="#b5b5b5" stroke="#b5b5b5" stroke-width="1.51"/><path d="M526,1102L356,1272L561,1249Z" fill="#a6a6a6" stroke="#a6a6a6" stroke-width="1.51"/><path d="M371,-80L414,125L528,91Z" fill="#b6b6b6" stroke="#b6b6b6" stroke-width="1.51"/><path d="M520,1001L402,1078L526,1102Z" fill="#b1b1b1" stroke="#b1b1b1" stroke-width="1.51"/><path d="M336,869L520,1001L539,868Z" fill="#bababa" stroke="#bababa" stroke-width="1.51"/><path d="M50,-206L212,-153L364,-186Z" fill="#9c9c9c" stroke="#9c9c9c" stroke-width="1.51"/><path d="M378,502L482,523L487,365Z" fill="#d0d0d0" stroke="#d0d0d0" stroke-width="1.51"/><path d="M336,869L343,1016L520,1001Z" fill="#b4b4b4" stroke="#b4b4b4" stroke-width="1.51"/><path d="M482,523L345,652L520,649Z" fill="#cdcdcd" stroke="#cdcdcd" stroke-width="1.51"/><path d="M343,1016L402,1078L520,1001Z" fill="#b0b0b0" stroke="#b0b0b0" stroke-width="1.51"/><path d="M238,1247L67,1308L356,1272Z" fill="#969696" stroke="#969696" stroke-width="1.51"/><path d="M378,502L345,652L482,523Z" fill="#d0d0d0" stroke="#d0d0d0" stroke-width="1.51"/><path d="M357,359L378,502L487,365Z" fill="#cccccc" stroke="#cccccc" stroke-width="1.51"/><path d="M414,125L337,267L495,247Z" fill="#c0c0c0" stroke="#c0c0c0" stroke-width="1.51"/><path d="M357,359L487,365L495,247Z" fill="#c9c9c9" stroke="#c9c9c9" stroke-width="1.51"/><path d="M337,267L357,359L495,247Z" fill="#c5c5c5" stroke="#c5c5c5" stroke-width="1.51"/><path d="M221,690L336,869L345,652Z" fill="#bcbcbc" stroke="#bcbcbc" stroke-width="1.51"/><path d="M262,-35L257,68L371,-80Z" fill="#acacac" stroke="#acacac" stroke-width="1.51"/><path d="M357,359L275,418L378,502Z" fill="#c9c9c9" stroke="#c9c9c9" stroke-width="1.51"/><path d="M227,1151L356,1272L402,1078Z" fill="#a3a3a3" stroke="#a3a3a3" stroke-width="1.51"/><path d="M371,-80L257,68L414,125Z" fill="#b1b1b1" stroke="#b1b1b1" stroke-width="1.51"/><path d="M257,68L337,267L414,125Z" fill="#b8b8b8" stroke="#b8b8b8" stroke-width="1.51"/><path d="M257,68L237,248L337,267Z" fill="#b9b9b9" stroke="#b9b9b9" stroke-width="1.51"/><path d="M227,1151L238,1247L356,1272Z" fill="#9c9c9c" stroke="#9c9c9c" stroke-width="1.51"/><path d="M343,1016L227,1151L402,1078Z" fill="#a9a9a9" stroke="#a9a9a9" stroke-width="1.51"/><path d="M336,869L204,954L343,1016Z" fill="#b1b1b1" stroke="#b1b1b1" stroke-width="1.51"/><path d="M364,-186L212,-153L371,-80Z" fill="#a4a4a4" stroke="#a4a4a4" stroke-width="1.51"/><path d="M212,-153L262,-35L371,-80Z" fill="#a7a7a7" stroke="#a7a7a7" stroke-width="1.51"/><path d="M200,496L345,652L378,502Z" fill="#cccccc" stroke="#cccccc" stroke-width="1.51"/><path d="M275,418L200,496L378,502Z" fill="#c9c9c9" stroke="#c9c9c9" stroke-width="1.51"/><path d="M221,690L198,862L336,869Z" fill="#b7b7b7" stroke="#b7b7b7" stroke-width="1.51"/><path d="M200,496L221,690L345,652Z" fill="#c5c5c5" stroke="#c5c5c5" stroke-width="1.51"/><path d="M337,267L237,248L357,359Z" fill="#c1c1c1" stroke="#c1c1c1" stroke-width="1.51"/><path d="M237,248L275,418L357,359Z" fill="#c4c4c4" stroke="#c4c4c4" stroke-width="1.51"/><path d="M204,954L227,1151L343,1016Z" fill="#a9a9a9" stroke="#a9a9a9" stroke-width="1.51"/><path d="M198,862L204,954L336,869Z" fill="#b2b2b2" stroke="#b2b2b2" stroke-width="1.51"/><path d="M124,805L198,862L221,690Z" fill="#b5b5b5" stroke="#b5b5b5" stroke-width="1.51"/><path d="M200,496L98,665L221,690Z" fill="#c2c2c2" stroke="#c2c2c2" stroke-width="1.51"/><path d="M204,954L125,1085L227,1151Z" fill="#a5a5a5" stroke="#a5a5a5" stroke-width="1.51"/><path d="M116,92L237,248L257,68Z" fill="#b2b2b2" stroke="#b2b2b2" stroke-width="1.51"/><path d="M237,248L125,437L275,418Z" fill="#c2c2c2" stroke="#c2c2c2" stroke-width="1.51"/><path d="M125,437L200,496L275,418Z" fill="#c5c5c5" stroke="#c5c5c5" stroke-width="1.51"/><path d="M67,565L98,665L200,496Z" fill="#c3c3c3" stroke="#c3c3c3" stroke-width="1.51"/><path d="M89,241L125,437L237,248Z" fill="#bcbcbc" stroke="#bcbcbc" stroke-width="1.51"/><path d="M116,92L89,241L237,248Z" fill="#b4b4b4" stroke="#b4b4b4" stroke-width="1.51"/><path d="M212,-153L109,-73L262,-35Z" fill="#a3a3a3" stroke="#a3a3a3" stroke-width="1.51"/><path d="M116,92L257,68L262,-35Z" fill="#adadad" stroke="#adadad" stroke-width="1.51"/><path d="M109,-73L116,92L262,-35Z" fill="#a8a8a8" stroke="#a8a8a8" stroke-width="1.51"/><path d="M125,1085L67,1308L227,1151Z" fill="#9a9a9a" stroke="#9a9a9a" stroke-width="1.51"/><path d="M227,1151L67,1308L238,1247Z" fill="#989898" stroke="#989898" stroke-width="1.51"/><path d="M98,665L124,805L221,690Z" fill="#b8b8b8" stroke="#b8b8b8" stroke-width="1.51"/><path d="M50,1011L125,1085L204,954Z" fill="#a5a5a5" stroke="#a5a5a5" stroke-width="1.51"/><path d="M50,-206L109,-73L212,-153Z" fill="#9c9c9c" stroke="#9c9c9c" stroke-width="1.51"/><path d="M124,805L50,1011L198,862Z" fill="#adadad" stroke="#adadad" stroke-width="1.51"/><path d="M198,862L50,1011L204,954Z" fill="#acacac" stroke="#acacac" stroke-width="1.51"/><path d="M125,437L67,565L200,496Z" fill="#c4c4c4" stroke="#c4c4c4" stroke-width="1.51"/><path d="M-242,-219L-96,-155L50,-206Z" fill="#8e8e8e" stroke="#8e8e8e" stroke-width="1.51"/><path d="M-15,1269L-216,1287L67,1308Z" fill="#898989" stroke="#898989" stroke-width="1.51"/><path d="M-97,-27L-69,99L109,-73Z" fill="#a0a0a0" stroke="#a0a0a0" stroke-width="1.51"/><path d="M109,-73L-69,99L116,92Z" fill="#a6a6a6" stroke="#a6a6a6" stroke-width="1.51"/><path d="M-69,99L89,241L116,92Z" fill="#acacac" stroke="#acacac" stroke-width="1.51"/><path d="M-18,975L50,1011L124,805Z" fill="#a8a8a8" stroke="#a8a8a8" stroke-width="1.51"/><path d="M-50,866L-18,975L124,805Z" fill="#a9a9a9" stroke="#a9a9a9" stroke-width="1.51"/><path d="M98,665L-15,677L124,805Z" fill="#b5b5b5" stroke="#b5b5b5" stroke-width="1.51"/><path d="M-15,677L-50,866L124,805Z" fill="#aeaeae" stroke="#aeaeae" stroke-width="1.51"/><path d="M50,1011L-50,1105L125,1085Z" fill="#9f9f9f" stroke="#9f9f9f" stroke-width="1.51"/><path d="M-15,1269L67,1308L125,1085Z" fill="#949494" stroke="#949494" stroke-width="1.51"/><path d="M-50,1105L-15,1269L125,1085Z" fill="#989898" stroke="#989898" stroke-width="1.51"/><path d="M-39,402L67,565L125,437Z" fill="#c0c0c0" stroke="#c0c0c0" stroke-width="1.51"/><path d="M89,241L-26,276L125,437Z" fill="#b9b9b9" stroke="#b9b9b9" stroke-width="1.51"/><path d="M-26,276L-39,402L125,437Z" fill="#bababa" stroke="#bababa" stroke-width="1.51"/><path d="M-69,99L-26,276L89,241Z" fill="#aeaeae" stroke="#aeaeae" stroke-width="1.51"/><path d="M50,-206L-96,-155L109,-73Z" fill="#989898" stroke="#989898" stroke-width="1.51"/><path d="M-96,-155L-97,-27L109,-73Z" fill="#9a9a9a" stroke="#9a9a9a" stroke-width="1.51"/><path d="M-39,402L-66,545L67,565Z" fill="#bebebe" stroke="#bebebe" stroke-width="1.51"/><path d="M67,565L-15,677L98,665Z" fill="#bbbbbb" stroke="#bbbbbb" stroke-width="1.51"/><path d="M-66,545L-15,677L67,565Z" fill="#bbbbbb" stroke="#bbbbbb" stroke-width="1.51"/><path d="M-18,975L-50,1105L50,1011Z" fill="#9f9f9f" stroke="#9f9f9f" stroke-width="1.51"/><path d="M-69,99L-160,212L-26,276Z" fill="#a9a9a9" stroke="#a9a9a9" stroke-width="1.51"/><path d="M-172,359L-39,402L-26,276Z" fill="#b3b3b3" stroke="#b3b3b3" stroke-width="1.51"/><path d="M-226,986L-50,1105L-18,975Z" fill="#9b9b9b" stroke="#9b9b9b" stroke-width="1.51"/><path d="M-50,866L-226,986L-18,975Z" fill="#a0a0a0" stroke="#a0a0a0" stroke-width="1.51"/><path d="M-66,545L-165,673L-15,677Z" fill="#b4b4b4" stroke="#b4b4b4" stroke-width="1.51"/><path d="M-179,812L-50,866L-15,677Z" fill="#a9a9a9" stroke="#a9a9a9" stroke-width="1.51"/><path d="M-165,673L-179,812L-15,677Z" fill="#ababab" stroke="#ababab" stroke-width="1.51"/><path d="M-50,1105L-231,1160L-15,1269Z" fill="#909090" stroke="#909090" stroke-width="1.51"/><path d="M-231,1160L-216,1287L-15,1269Z" fill="#888888" stroke="#888888" stroke-width="1.51"/><path d="M-172,359L-66,545L-39,402Z" fill="#b7b7b7" stroke="#b7b7b7" stroke-width="1.51"/><path d="M-160,212L-172,359L-26,276Z" fill="#aeaeae" stroke="#aeaeae" stroke-width="1.51"/><path d="M-172,359L-223,545L-66,545Z" fill="#b6b6b6" stroke="#b6b6b6" stroke-width="1.51"/><path d="M-179,812L-226,986L-50,866Z" fill="#a0a0a0" stroke="#a0a0a0" stroke-width="1.51"/><path d="M-226,986L-231,1160L-50,1105Z" fill="#939393" stroke="#939393" stroke-width="1.51"/><path d="M-97,-27L-229,79L-69,99Z" fill="#9d9d9d" stroke="#9d9d9d" stroke-width="1.51"/><path d="M-229,79L-160,212L-69,99Z" fill="#a1a1a1" stroke="#a1a1a1" stroke-width="1.51"/><path d="M-223,545L-165,673L-66,545Z" fill="#b4b4b4" stroke="#b4b4b4" stroke-width="1.51"/><path d="M-228,-26L-229,79L-97,-27Z" fill="#989898" stroke="#989898" stroke-width="1.51"/><path d="M-228,-26L-97,-27L-96,-155Z" fill="#969696" stroke="#969696" stroke-width="1.51"/><path d="M-242,-219L-228,-26L-96,-155Z" fill="#8e8e8e" stroke="#8e8e8e" stroke-width="1.51"/><path d="M-229,79L-172,359L-160,212Z" fill="#a6a6a6" stroke="#a6a6a6" stroke-width="1.51"/><path d="M-223,545L-179,812L-165,673Z" fill="#ababab" stroke="#ababab" stroke-width="1.51"/><path d="M-229,79L-223,545L-172,359Z" fill="#acacac" stroke="#acacac" stroke-width="1.51"/><path d="M-223,545L-226,986L-179,812Z" fill="#a3a3a3" stroke="#a3a3a3" stroke-width="1.51"/><path d="M-229,79L-242,-219L-223,545Z" fill="#9d9d9d" stroke="#9d9d9d" stroke-width="1.51"/><path d="M-231,1160L-226,986L-223,545Z" fill="#9c9c9c" stroke="#9c9c9c" stroke-width="1.51"/><path d="M-242,-219L-231,1160L-223,545Z" fill="#b2b2b2" stroke="#b2b2b2" stroke-width="1.51"/><path d="M-242,-219L-229,79L-228,-26Z" fill="#929292" stroke="#929292" stroke-width="1.51"/></svg>